<?xml version="1.0" standalone="no"?>
<!DOCTYPE svg PUBLIC "-//W3C//DTD SVG 20010904//EN"
 "http://www.w3.org/TR/2001/REC-SVG-20010904/DTD/svg10.dtd">
<svg version="1.0" xmlns="http://www.w3.org/2000/svg"
 width="100.000000pt" height="100.000000pt" viewBox="0 0 100.000000 100.000000"
 preserveAspectRatio="xMidYMid meet">
<metadata>
Created by potrace 1.10, written by Peter Selinger 2001-2011
</metadata>
<g id="delete-icon" transform="translate(0.000000,100.000000) scale(0.100000,-0.100000)"
fill="#000000" stroke="none">
<path d="M515 903 c-153 -20 -309 -117 -350 -217 -55 -132 -9 -342 98 -450 55
-54 119 -84 215 -97 186 -27 321 25 385 146 16 31 21 64 25 150 3 95 1 117
-17 164 -25 62 -70 131 -118 182 -25 26 -33 43 -29 56 17 53 -78 83 -209 66z
m148 -37 c20 -5 27 -12 27 -30 0 -15 20 -48 50 -83 28 -32 66 -89 85 -127 33
-64 35 -75 35 -165 0 -118 -10 -156 -55 -208 -63 -74 -156 -99 -312 -83 -136
14 -206 55 -262 154 -45 77 -65 166 -58 257 3 42 12 89 20 105 50 95 190 169
347 183 41 4 80 6 85 5 6 -1 22 -5 38 -8z"/>
<path d="M429 826 c-113 -40 -195 -108 -219 -182 -21 -64 -9 -190 27 -265 70
-151 157 -197 364 -192 102 2 178 50 213 135 22 52 22 212 0 264 -24 57 -98
157 -142 193 -45 35 -124 71 -155 71 -12 0 -52 -11 -88 -24z m169 -37 c71 -35
136 -103 178 -188 26 -50 29 -66 29 -151 -1 -105 -13 -140 -64 -183 -48 -40
-93 -50 -205 -45 -82 4 -111 9 -151 29 -94 48 -155 162 -155 294 0 40 5 86 11
102 23 61 103 121 207 154 76 24 79 24 150 -12z"/>
<path d="M564 708 c-5 -7 -25 -43 -44 -80 -19 -36 -38 -64 -42 -62 -4 3 -26
34 -49 69 -30 47 -48 65 -63 65 -25 0 -46 -17 -46 -38 0 -12 51 -94 104 -166
5 -8 -7 -35 -33 -75 -46 -73 -47 -74 -25 -95 29 -29 52 -19 90 41 l37 58 61
-68 c65 -72 96 -84 116 -46 14 25 6 38 -74 126 l-56 61 44 72 c50 81 62 116
45 136 -14 17 -54 18 -65 2z m36 -35 c0 -9 -18 -49 -40 -89 -22 -40 -40 -80
-40 -88 0 -8 27 -46 60 -84 56 -65 71 -92 53 -92 -5 0 -35 30 -69 67 -43 47
-65 65 -77 60 -9 -3 -31 -29 -49 -56 -57 -88 -69 -56 -13 36 19 32 35 61 35
64 0 4 -17 28 -39 55 -47 60 -74 111 -62 118 5 4 30 -23 56 -60 61 -85 76 -84
130 13 40 72 55 88 55 56z"/>
</g>
</svg>
