<?xml version="1.0" standalone="no"?>
<!DOCTYPE svg PUBLIC "-//W3C//DTD SVG 20010904//EN"
 "http://www.w3.org/TR/2001/REC-SVG-20010904/DTD/svg10.dtd">
<svg version="1.0" xmlns="http://www.w3.org/2000/svg"
 width="100.000000pt" height="100.000000pt" viewBox="0 0 100.000000 100.000000"
 preserveAspectRatio="xMidYMid meet">

<g transform="translate(0.000000,100.000000) scale(0.100000,-0.100000)"
fill="#000000" stroke="none">
<path d="M560 680 l-62 -92 -55 61 c-56 62 -81 73 -104 45 -14 -18 -16 -14 54
-100 27 -33 51 -64 53 -70 6 -13 -70 -135 -123 -201 -39 -47 -42 -86 -7 -91
25 -4 87 62 141 150 20 32 39 58 44 58 4 0 43 -45 85 -101 66 -86 80 -100 103
-97 49 6 38 39 -53 156 -47 60 -86 114 -86 120 0 5 30 55 67 112 53 81 64 106
56 119 -5 9 -19 17 -31 19 -16 3 -34 -16 -82 -88z"/>
</g>
</svg>
